<svg xmlns="http://www.w3.org/2000/svg" viewBox="0 0 400 300" width="406" height="306" class="illustration styles_illustrationTablet__1DWOa"><g id="_507_data_analyst_flatline" data-name="#507_data_analyst_flatline"><path d="M258.11,244.82s10.14,15.21,11.83,14.36,22.9-15.11,19.8-16.52-14.27,1.51-14.27,1.51l-8.35-10Z" fill="#fff"></path><path d="M269.88,259.69c-2,0-7.68-7.83-12.19-14.59a.5.5,0,0,1,0-.6l9-10.7a.49.49,0,0,1,.76,0l8.15,9.8c1.88-.47,11.34-2.74,14.3-1.39a1,1,0,0,1,.6.89c.06,3.32-19.48,16.08-20.39,16.53A.64.64,0,0,1,269.88,259.69Zm-11.15-14.83c4.47,6.67,9.91,13.79,11,13.86.65-.35,5.73-3.67,10.69-7.35,9.07-6.71,9.1-8.12,9.08-8.26-2.43-1.09-10.89.74-13.95,1.54a.49.49,0,0,1-.51-.17l-8-9.58Z" fill="#231f20"></path><path d="M223.2,241.44s-4.79,17.93-3.48,19.43,32.29,3,31.16,1.32-15.7-11.08-15.7-11.08l1.39-8.4Z" fill="#fff"></path><path d="M244.14,263.39c-9.09,0-23.8-1.05-24.79-2.19-1.38-1.58,2.22-15.62,3.36-19.89a.51.51,0,0,1,.53-.36l13.38,1.26a.55.55,0,0,1,.35.2.48.48,0,0,1,.09.38l-1.33,8.08c2.4,1.55,14.47,9.39,15.57,11a.64.64,0,0,1-.17.89C250.59,263.22,247.83,263.39,244.14,263.39ZM223.57,242c-2.23,8.44-4.12,17.59-3.47,18.57,1.59,1.23,26.46,2.49,30.08,1.59-1.76-1.7-9.86-7.13-15.27-10.61a.48.48,0,0,1-.22-.5l1.3-7.87Z" fill="#231f20"></path><rect x="166.98" y="179.82" width="38.08" height="79.37" fill="#fff"></rect><path d="M205.07,259.68H167a.5.5,0,0,1-.5-.5V179.82a.5.5,0,0,1,.5-.5h38.09a.5.5,0,0,1,.5.5v79.36A.5.5,0,0,1,205.07,259.68Zm-37.59-1h37.09V180.32H167.48Z" fill="#231f20"></path><rect x="118.29" y="159.68" width="38.08" height="99.5" fill="#fff"></rect><path d="M156.37,259.68H118.29a.5.5,0,0,1-.5-.5v-99.5a.5.5,0,0,1,.5-.5h38.08a.5.5,0,0,1,.5.5v99.5A.5.5,0,0,1,156.37,259.68Zm-37.58-1h37.08v-98.5H118.79Z" fill="#231f20"></path><rect x="71.95" y="120.99" width="38.08" height="138.19" fill="#fff"></rect><path d="M110,259.68H72a.5.5,0,0,1-.5-.5V121a.5.5,0,0,1,.5-.5H110a.5.5,0,0,1,.5.5V259.18A.5.5,0,0,1,110,259.68Zm-37.58-1h37.08V121.49H72.45Z" fill="#231f20"></path><polygon points="216.05 161.56 274.72 237.9 257.45 249.61 178.3 161.56 216.05 161.56" fill="#231f20"></polygon><path d="M257.45,250.11a.5.5,0,0,1-.37-.17l-79.16-88.05a.49.49,0,0,1-.08-.53.51.51,0,0,1,.46-.3h37.75a.49.49,0,0,1,.39.19l58.68,76.34a.54.54,0,0,1,.1.39.48.48,0,0,1-.22.33L257.73,250A.47.47,0,0,1,257.45,250.11Zm-78-88.05L257.53,249,274,237.78l-58.2-75.72Z" fill="#231f20"></path><path d="M160.79,162.92s5.19,15.17,10.85,21.37,52.69,23.65,52.69,23.65l-4.28,37.67,21.74,2.31s14.86-41.11,9.82-47.87-60-43-60-43Z" fill="#231f20"></path><path d="M241.79,248.42h0L220,246.11a.52.52,0,0,1-.34-.18.5.5,0,0,1-.1-.37l4.23-37.29c-4.73-1.77-47-17.65-52.52-23.65-5.66-6.2-10.74-20.92-11-21.54a.49.49,0,0,1,0-.41.53.53,0,0,1,.34-.25l30.84-5.86a.51.51,0,0,1,.36.07C194.15,158.12,247,193,252,199.76c2.19,2.93,1.2,12-2.94,26.89-3,11-6.77,21.34-6.81,21.44A.5.5,0,0,1,241.79,248.42Zm-21.18-3.25,20.84,2.21c.69-1.93,3.94-11.19,6.66-21,5-18.18,4.47-24.19,3.1-26-4.8-6.42-56.31-40.54-59.69-42.77l-30.06,5.72c1,2.76,5.63,15.26,10.55,20.65,5.52,6,52,23.35,52.5,23.52a.5.5,0,0,1,.32.53Z" fill="#231f20"></path><path d="M218.7,107.54s9.88,22,11.38,22.15l6.1-9.48s.56-6.47,2.25-9.1,3.57-1.88,3.57-1.88,1.67-3.16,3.73-3.53,8.49,3.61,4.72,6.07S234.51,149.41,230,149.85c-14.33,1.38-24.51-38.25-24.41-38.37Z" fill="#fff"></path><path d="M229.24,150.38c-5.51,0-11-5.54-16.2-16.5-4-8.43-8.43-22.12-7.81-22.75a.45.45,0,0,1,.21-.12l13.12-4a.52.52,0,0,1,.6.27c4.25,9.46,9.27,19.78,10.8,21.63l5.73-8.92c.09-.94.7-6.67,2.32-9.2,1.41-2.2,3-2.29,3.74-2.18.52-.87,2-3.11,3.89-3.45,1.7-.31,5.44,1.73,6.28,3.84a2.43,2.43,0,0,1-1.2,3.13c-1.53,1-5,8.77-8.3,16.29-5.78,13.05-9.76,21.62-12.39,21.87A7,7,0,0,1,229.24,150.38Zm-23.07-38.55a129.82,129.82,0,0,0,6.84,19.6c3.84,8.55,9.88,18.61,16.93,17.92,2.24-.22,7.63-12.39,11.57-21.29,3.69-8.35,6.89-15.56,8.66-16.71,1.13-.74,1-1.45.82-1.93-.69-1.75-4-3.45-5.17-3.23-1.5.27-2.95,2.46-3.38,3.27a.51.51,0,0,1-.63.24c-.05,0-1.53-.54-3,1.68-1.6,2.49-2.17,8.81-2.17,8.87a.45.45,0,0,1-.08.23L230.5,130a.51.51,0,0,1-.48.23c-1.53-.19-7.84-13.71-11.6-22Z" fill="#231f20"></path><path d="M174.05,49.54a23.48,23.48,0,0,0-1.91,1.94c-2.2,2.48-3.43,5.65-4.61,8.74-1.79,4.69-2.87,13.83-5.8,17.58-3.22,4.11-10.46,2.33-13.29,7.18-1.81,3.1-.33,7.12-1.31,10.57-1.79,6.24-10.24,7.66-14.12,12.87-3.1,4.15-2.7,10-1.27,14.94,1,3.43,2.46,6.84,5,9.3,8.32,7.94,24.3,1.38,30-6.72,2.85-4.09,4.46-9.5,8.91-11.74,3.23-1.62,7.06-1.07,10.67-1.2a26.85,26.85,0,0,0,11.43-3c3.7-1.93,7.28-5.92,5.83-9.83-.91-2.43-3.56-4-4-6.57-.68-3.52,2.94-6.13,5.47-8.67,6.61-6.67,6.54-18.77-.15-25.36a11,11,0,0,0-.75-13.93,5.9,5.9,0,0,0-2.89-1.79,9.63,9.63,0,0,0-3.38.11C188.6,45.18,181.24,43.06,174.05,49.54Z" fill="#fff"></path><path d="M146.5,136.75A14.13,14.13,0,0,1,136.44,133c-2.29-2.18-3.94-5.21-5.18-9.53s-2.09-10.76,1.35-15.37c1.7-2.29,4.24-3.86,6.7-5.38,3.27-2,6.36-3.93,7.34-7.33a15.54,15.54,0,0,0,.34-4.49c0-2.11-.09-4.3,1-6.19,1.6-2.74,4.48-3.49,7.25-4.22,2.4-.63,4.67-1.22,6.08-3,1.81-2.31,2.94-6.93,3.93-11a60.93,60.93,0,0,1,1.8-6.44c1.14-3,2.42-6.31,4.7-8.89a24.49,24.49,0,0,1,2-2h0c5.33-4.8,10.65-5,16.8-5.22,2.32-.09,4.71-.18,7.26-.52l.38-.06a8.65,8.65,0,0,1,3.17,0,6.32,6.32,0,0,1,3.14,1.94,11.54,11.54,0,0,1,1,14.23,19.12,19.12,0,0,1-.15,25.75c-.41.42-.85.84-1.3,1.26-2.24,2.11-4.54,4.29-4,7a7.84,7.84,0,0,0,2,3.39,11.43,11.43,0,0,1,2,3.1c1.48,4-1.93,8.28-6.06,10.45a27.53,27.53,0,0,1-11.65,3.09c-.88,0-1.76,0-2.65,0-2.69,0-5.47,0-7.82,1.13-3,1.49-4.61,4.46-6.34,7.59-.74,1.34-1.51,2.73-2.38,4-3.73,5.33-11.56,9.71-18.61,10.42C147.84,136.72,147.16,136.75,146.5,136.75Zm27.89-86.84a22.54,22.54,0,0,0-1.88,1.9c-2.16,2.44-3.36,5.57-4.51,8.59a56.47,56.47,0,0,0-1.77,6.31c-1.07,4.39-2.17,8.92-4.11,11.39-1.62,2.07-4.16,2.74-6.62,3.38-2.69.7-5.24,1.37-6.63,3.76-1,1.64-.92,3.59-.88,5.66a16.34,16.34,0,0,1-.38,4.78c-1.08,3.78-4.49,5.88-7.78,7.91-2.37,1.47-4.83,3-6.42,5.12C130.22,113,131,119,132.22,123.22s2.75,7,4.91,9.08c3.51,3.35,8.09,3.68,11.31,3.35,6.79-.67,14.31-4.88,17.89-10,.84-1.21,1.6-2.57,2.33-3.89,1.73-3.13,3.52-6.38,6.76-8,2.57-1.28,5.47-1.26,8.27-1.23.88,0,1.75,0,2.61,0a26.63,26.63,0,0,0,11.22-3c3.75-2,6.88-5.76,5.59-9.21a10.43,10.43,0,0,0-1.85-2.81A8.75,8.75,0,0,1,199,93.66c-.61-3.22,2-5.7,4.33-7.89.44-.41.88-.82,1.28-1.23a18.11,18.11,0,0,0-.14-24.65.5.5,0,0,1,0-.66A10.48,10.48,0,0,0,203.75,46a5.41,5.41,0,0,0-2.64-1.66,7.86,7.86,0,0,0-2.81.07l-.39.06c-2.59.35-5,.44-7.35.53-6,.21-11.11.4-16.17,5Z" fill="#231f20"></path><path d="M206.41,91.24s12.28,12.76,15.7,20.68a76.87,76.87,0,0,0-17.26,3.77Z" fill="#68e1fd"></path><path d="M187.54,83.66S176.14,79,162,90.86C155.7,96.21,154.38,102,151.71,108c2,20.1,9.08,54.91,9.08,54.91l55.26-1.36s-3.81-60.95-8.23-68.47S187.54,83.66,187.54,83.66Z" fill="#68e1fd"></path><path d="M180.05,86.21c.86,1.68,10.34,37.9,10.34,37.9l5.11-33.64Z" fill="#231f20"></path><path d="M190.39,124.61a.49.49,0,0,1-.48-.38c-2.64-10.06-9.62-36.46-10.3-37.8a.48.48,0,0,1,.06-.54.51.51,0,0,1,.52-.17L195.64,90a.49.49,0,0,1,.36.55l-5.12,33.64a.48.48,0,0,1-.46.42Zm-9.55-37.67c1.61,5.06,7.48,27.31,9.42,34.7l4.68-30.81Z" fill="#231f20"></path><path d="M202.55,57s2.58,8.19.94,14.27A9,9,0,0,1,196.3,78l-.42,10.86s-.17,5.56-6.94,4.43a11.69,11.69,0,0,1-8.89-7.08v-20s7.89-4.14,7.5-11.34C187.56,54.86,196.56,59.66,202.55,57Z" fill="#fff"></path><path d="M190.65,93.94a11.37,11.37,0,0,1-1.79-.15,12.09,12.09,0,0,1-9.28-7.42.45.45,0,0,1,0-.16v-20a.48.48,0,0,1,.27-.44c.07,0,7.6-4.08,7.23-10.87a.51.51,0,0,1,.23-.45.5.5,0,0,1,.5,0c.09,0,8.86,4.65,14.56,2.11a.5.5,0,0,1,.68.31c.11.34,2.61,8.4.94,14.55a9.58,9.58,0,0,1-7.18,7l-.41,10.47a5.62,5.62,0,0,1-1.9,3.85A5.84,5.84,0,0,1,190.65,93.94Zm-10.1-7.83A11.27,11.27,0,0,0,189,92.8c2.09.35,3.71.07,4.82-.84a4.66,4.66,0,0,0,1.54-3.12L195.8,78a.5.5,0,0,1,.44-.48A8.44,8.44,0,0,0,203,71.12c1.35-5-.26-11.58-.78-13.46-5.15,1.9-11.92-.92-14.16-2-.18,6.26-6.14,10-7.51,10.82Z" fill="#231f20"></path><path d="M183.88,64.94s-3.07-7.67-7-3.06,1.35,10,4.71,9.71" fill="#fff"></path><path d="M181.27,72.11c-2,0-4.46-1.66-5.62-3.92a5.73,5.73,0,0,1,.82-6.64,3.72,3.72,0,0,1,3.42-1.61c2.68.45,4.38,4.64,4.45,4.81a.5.5,0,1,1-.92.37c-.43-1.06-1.93-3.9-3.69-4.19a2.79,2.79,0,0,0-2.5,1.27,4.73,4.73,0,0,0-.7,5.53c1.05,2,3.29,3.53,5,3.36a.5.5,0,0,1,.54.46.49.49,0,0,1-.45.54Z" fill="#231f20"></path><path d="M198.07,71.45a9,9,0,0,1-2.35-.37.51.51,0,0,1-.33-.63.51.51,0,0,1,.63-.33,5.45,5.45,0,0,0,3.11.14c.13-.44-1.21-3.05-2.92-5.53a.49.49,0,0,1,.12-.69.5.5,0,0,1,.7.12c.8,1.15,3.38,5,3,6.42a.87.87,0,0,1-.48.59A3.5,3.5,0,0,1,198.07,71.45Z" fill="#231f20"></path><path d="M195.36,74.72a7.48,7.48,0,0,1-1.93-.26,8,8,0,0,1-4.55-3.37.5.5,0,0,1,.92-.38,7.21,7.21,0,0,0,4.07,2.83c2.09.52,4.28-.07,6.51-1.76a.5.5,0,1,1,.6.8A9.33,9.33,0,0,1,195.36,74.72Z" fill="#231f20"></path><path d="M196.3,78s-5.83.5-9.13-.48c0,0,3.31,8.7,8.83,8.87Z" fill="#231f20"></path><path d="M196,86.89h0c-5.79-.18-9.14-8.82-9.28-9.19a.54.54,0,0,1,.1-.52.51.51,0,0,1,.51-.14c3.17.95,8.89.46,8.95.46a.52.52,0,0,1,.39.14.47.47,0,0,1,.15.38l-.3,8.39A.5.5,0,0,1,196,86.89Zm-8-8.65c1,2.09,3.65,7.09,7.49,7.61l.26-7.31A33.67,33.67,0,0,1,188,78.24Z" fill="#231f20"></path><ellipse cx="192.87" cy="63.15" rx="0.85" ry="1.5" transform="translate(-0.96 3) rotate(-0.89)" fill="#231f20"></ellipse><ellipse cx="200.73" cy="63.03" rx="0.85" ry="1.5" transform="translate(-0.95 3.12) rotate(-0.89)" fill="#231f20"></ellipse><path d="M151.71,108s-11.5,37.66-3.41,46.43c5.61,6.09,20-.51,26.26-2.92,30.94-11.87,41.89-21.58,39.42-21.12.76-2.54-7,1-8.3,1.49-.52-2.08,3.28-5.74,5.42-5.86s4.6.75,4.93-1.37c.18-1.21-1-2.44-2.05-3s-10.11-1.09-12,.63c-1.24,1.11-1.87,2.76-3,3.94a11.21,11.21,0,0,1-4.35,2.35q-9.19,3.3-18.62,5.94c-3,.86-10.22,2.52-10.22,2.52l3.61-22.24" fill="#fff"></path><path d="M155.26,157.47c-2.93,0-5.53-.73-7.33-2.69-8.18-8.88,2.83-45.37,3.3-46.91a.51.51,0,0,1,.63-.34.51.51,0,0,1,.33.63c-.11.37-11.32,37.48-3.52,45.94,4.84,5.26,17.11.37,23.7-2.25l2-.8c25.9-9.93,37.63-18.32,39.26-20.32h0a.53.53,0,0,1-.13-.48.54.54,0,0,0,0-.2c-.12-.1-1-.53-7.27,2.14l-.39.16a.51.51,0,0,1-.42,0,.54.54,0,0,1-.26-.33,4.15,4.15,0,0,1,1-3.16c1.14-1.54,3.23-3.23,4.87-3.32a15.77,15.77,0,0,1,1.69,0c1.84.11,2.61.05,2.77-1s-.79-2-1.78-2.47-9.72-1-11.49.57a9.38,9.38,0,0,0-1.55,2,9,9,0,0,1-6,4.4c-6.11,2.19-12.39,4.19-18.66,6-3,.84-10.17,2.5-10.24,2.52a.49.49,0,0,1-.45-.12.5.5,0,0,1-.15-.45l3.61-22.24a.49.49,0,0,1,.57-.41.51.51,0,0,1,.42.57l-3.5,21.51c1.91-.45,7.05-1.67,9.47-2.35,6.25-1.75,12.5-3.75,18.6-5.93a8.11,8.11,0,0,0,5.49-4,10.57,10.57,0,0,1,1.73-2.18c2.15-1.91,11.33-1.35,12.6-.71s2.54,2.09,2.32,3.52c-.32,2-2.17,1.92-3.81,1.83a12.15,12.15,0,0,0-1.59,0c-1.12.06-3,1.37-4.12,2.92a4.57,4.57,0,0,0-.84,1.69c4.86-2,7.19-2.58,8-1.83a1,1,0,0,1,.33.68.63.63,0,0,1,.26.35c.48,1.69-12.57,11.1-40,21.65l-2,.78C167.92,154.69,161,157.47,155.26,157.47Z" fill="#231f20"></path><path d="M169.31,115.31h-.09a.49.49,0,0,1-.4-.58l2.33-13a.51.51,0,0,1,.58-.41.5.5,0,0,1,.4.58l-2.33,13A.49.49,0,0,1,169.31,115.31Z" fill="#231f20"></path><path d="M239.84,118.46a.51.51,0,0,1-.31-.11.5.5,0,0,1-.08-.7c1.42-1.75.39-5.67.38-5.71a.49.49,0,0,1,.31-.59.5.5,0,0,1,.62.25s1,2.14,2.6,2.3c.23-.37-.62-2.45-1.79-4.41a.51.51,0,0,1,.17-.69.51.51,0,0,1,.69.18c.77,1.29,2.49,4.41,1.8,5.49a1,1,0,0,1-1,.42,3.63,3.63,0,0,1-2.11-1.07,6.42,6.42,0,0,1-.92,4.45A.48.48,0,0,1,239.84,118.46Z" fill="#231f20"></path><path d="M245.11,132.33a12.2,12.2,0,0,1-9.59-4.25A12.6,12.6,0,0,1,233,117.56c1.46-8,9.2-14.6,17.25-14.6a12.19,12.19,0,0,1,9.59,4.26,12.6,12.6,0,0,1,2.51,10.52h0C260.9,125.78,253.16,132.33,245.11,132.33ZM250.26,104c-7.59,0-14.89,6.18-16.27,13.78a11.63,11.63,0,0,0,2.29,9.7,11.23,11.23,0,0,0,8.83,3.89c7.59,0,14.88-6.18,16.26-13.77h0a11.58,11.58,0,0,0-2.29-9.7A11.23,11.23,0,0,0,250.26,104Z" fill="#d1d3d4"></path><path d="M259.24,138.22H197.78a4.72,4.72,0,0,1-4.35-6.53l13-31.09a4.7,4.7,0,0,1,4.35-2.9H272.2a4.71,4.71,0,0,1,4.35,6.53l-13,31.09A4.7,4.7,0,0,1,259.24,138.22ZM210.74,98.7a3.71,3.71,0,0,0-3.43,2.29l-13,31.08a3.72,3.72,0,0,0,3.43,5.15h61.46a3.71,3.71,0,0,0,3.43-2.29l13-31.08a3.72,3.72,0,0,0-3.43-5.15Z" fill="#231f20"></path><path d="M228.6,104.82H211.72a.5.5,0,0,1-.5-.5.51.51,0,0,1,.5-.5H228.6a.51.51,0,0,1,.5.5A.5.5,0,0,1,228.6,104.82Z" fill="#231f20"></path><path d="M226.34,108.51H209.47a.5.5,0,0,1-.5-.5.5.5,0,0,1,.5-.5h16.87a.5.5,0,0,1,.5.5A.5.5,0,0,1,226.34,108.51Z" fill="#231f20"></path><path d="M245.05,238.4a.51.51,0,0,1-.45-.28c-.08-.16-.08-.16,7.47-29.6a.5.5,0,0,1,1,.25s-7.46,29.06-7.5,29.25a.53.53,0,0,1-.43.38Z" fill="#fff"></path><path d="M235,186.2a.53.53,0,0,1-.27-.08L206.4,167.53a.49.49,0,0,1-.14-.69.5.5,0,0,1,.69-.14l28.32,18.58a.51.51,0,0,1,.14.7A.52.52,0,0,1,235,186.2Z" fill="#fff"></path><path d="M257.67,169.52a32.56,32.56,0,1,0,65.12,0H290.23V137A32.57,32.57,0,0,0,257.67,169.52Z" fill="#68e1fd"></path><path d="M295.49,132.15v32.56h32.56A32.56,32.56,0,0,0,295.49,132.15Z" fill="#e6e7e8"></path><path d="M310.13,118.56H290.69a.47.47,0,1,1,0-.93h19.44a.47.47,0,0,1,0,.93Z" fill="#d1d3d4"></path><path d="M317.45,118.56h-3.69a.47.47,0,0,1,0-.93h3.69a.47.47,0,1,1,0,.93Z" fill="#d1d3d4"></path><path d="M319.19,110.32H290.52a.47.47,0,0,1,0-.93h28.67a.47.47,0,0,1,0,.93Z" fill="#d1d3d4"></path><path d="M299.93,102.08h-9.31a.46.46,0,0,1-.46-.46.45.45,0,0,1,.46-.46h9.31a.46.46,0,0,1,.46.46A.47.47,0,0,1,299.93,102.08Z" fill="#d1d3d4"></path><path d="M322.25,102.37H305.68a.45.45,0,0,1-.46-.46.46.46,0,0,1,.46-.46h16.57a.47.47,0,0,1,.46.46A.46.46,0,0,1,322.25,102.37Z" fill="#d1d3d4"></path><path d="M310.13,118.56H290.69a.47.47,0,1,1,0-.93h19.44a.47.47,0,0,1,0,.93Z" fill="none" stroke="#e6e7e8" stroke-linecap="round" stroke-linejoin="round"></path><path d="M317.45,118.56h-3.69a.47.47,0,0,1,0-.93h3.69a.47.47,0,1,1,0,.93Z" fill="none" stroke="#e6e7e8" stroke-linecap="round" stroke-linejoin="round"></path><path d="M319.19,110.32H290.52a.47.47,0,0,1,0-.93h28.67a.47.47,0,0,1,0,.93Z" fill="none" stroke="#e6e7e8" stroke-linecap="round" stroke-linejoin="round"></path><path d="M299.93,102.08h-9.31a.46.46,0,0,1-.46-.46.45.45,0,0,1,.46-.46h9.31a.46.46,0,0,1,.46.46A.47.47,0,0,1,299.93,102.08Z" fill="none" stroke="#e6e7e8" stroke-linecap="round" stroke-linejoin="round"></path><path d="M322.25,102.37H305.68a.45.45,0,0,1-.46-.46.46.46,0,0,1,.46-.46h16.57a.47.47,0,0,1,.46.46A.46.46,0,0,1,322.25,102.37Z" fill="none" stroke="#e6e7e8" stroke-linecap="round" stroke-linejoin="round"></path><path d="M322.47,213.8H290.4a.5.5,0,0,1-.5-.5.5.5,0,0,1,.5-.5h32.07a.5.5,0,0,1,.5.5A.5.5,0,0,1,322.47,213.8Z" fill="#d1d3d4"></path><path d="M315.56,222.91H290.87a.5.5,0,0,1-.5-.5.5.5,0,0,1,.5-.5h24.69a.51.51,0,0,1,.5.5A.5.5,0,0,1,315.56,222.91Z" fill="#d1d3d4"></path><path d="M319,231.7H290.4a.5.5,0,0,1-.5-.5.5.5,0,0,1,.5-.5H319a.51.51,0,0,1,.5.5A.5.5,0,0,1,319,231.7Z" fill="#d1d3d4"></path><path d="M323.57,222.48H319a.5.5,0,0,1,0-1h4.55a.5.5,0,0,1,0,1Z" fill="#d1d3d4"></path><path d="M131.69,88.93H77.81a.5.5,0,0,1-.5-.5V44.25a.5.5,0,0,1,.5-.5.5.5,0,0,1,.5.5V87.93h53.38a.5.5,0,0,1,0,1Z" fill="#e6e7e8"></path><path d="M77.81,88.93a.49.49,0,0,1-.34-.14.48.48,0,0,1,0-.7l22.63-24.25a.54.54,0,0,1,.42-.16.52.52,0,0,1,.37.24l5,8.06,15.72-17.29a.5.5,0,1,1,.74.67L106.2,73.14a.51.51,0,0,1-.42.16.48.48,0,0,1-.38-.23l-5-8.07L78.17,88.77A.48.48,0,0,1,77.81,88.93Z" fill="#e6e7e8"></path><path d="M307,91h0a.48.48,0,0,1-.44-.33L288.61,40.77,268.84,79.24a.52.52,0,0,1-.4.27.51.51,0,0,1-.44-.2L248.49,53.8,236.18,73.53a.51.51,0,0,1-.69.16l-10.35-6.23a.5.5,0,1,1,.52-.85l9.93,6L248,52.66a.52.52,0,0,1,.4-.24.47.47,0,0,1,.42.2l19.47,25.46,19.94-38.79a.52.52,0,0,1,.48-.27.53.53,0,0,1,.44.33l17.88,49.81,8.8-18.61a.5.5,0,1,1,.9.42l-9.31,19.71A.49.49,0,0,1,307,91Z" fill="#d1d3d4"></path><circle cx="235.75" cy="73.21" r="2.45" fill="#fff"></circle><path d="M235.75,76.17a3,3,0,1,1,3-3A3,3,0,0,1,235.75,76.17Zm0-4.91a2,2,0,1,0,2,1.95A2,2,0,0,0,235.75,71.26Z" fill="#d1d3d4"></path><circle cx="248.44" cy="52.92" r="2.45" fill="#fff"></circle><path d="M248.44,55.87a3,3,0,1,1,3-2.95A3,3,0,0,1,248.44,55.87Zm0-4.9a2,2,0,1,0,2,2A2,2,0,0,0,248.44,51Z" fill="#d1d3d4"></path><circle cx="288.7" cy="39.52" r="2.45" fill="#fff"></circle><path d="M288.69,42.47a3,3,0,1,1,3-2.95A3,3,0,0,1,288.69,42.47Zm0-4.9a2,2,0,1,0,2,2A2,2,0,0,0,288.69,37.57Z" fill="#d1d3d4"></path><circle cx="306.99" cy="90.47" r="2.45" fill="#fff"></circle><path d="M307,93.42a3,3,0,1,1,2.95-3A3,3,0,0,1,307,93.42Zm0-4.91a2,2,0,1,0,1.95,2A2,2,0,0,0,307,88.51Z" fill="#d1d3d4"></path><circle cx="268.4" cy="79.01" r="2.45" fill="#fff"></circle><path d="M268.4,82a3,3,0,1,1,3-2.95A3,3,0,0,1,268.4,82Zm0-4.9a1.95,1.95,0,1,0,2,2A2,2,0,0,0,268.4,77.06Z" fill="#d1d3d4"></path><path d="M145.48,50.21H131.69a.5.5,0,0,1-.5-.5.5.5,0,0,1,.5-.5h13.79a.5.5,0,0,1,.5.5A.5.5,0,0,1,145.48,50.21Z" fill="#d1d3d4"></path><path d="M145.48,53.77H131.69a.5.5,0,0,1-.5-.5.5.5,0,0,1,.5-.5h13.79a.5.5,0,0,1,.5.5A.5.5,0,0,1,145.48,53.77Z" fill="#d1d3d4"></path><path d="M140.84,57.34h-9.15a.5.5,0,0,1-.5-.5.5.5,0,0,1,.5-.5h9.15a.51.51,0,0,1,.5.5A.5.5,0,0,1,140.84,57.34Z" fill="#d1d3d4"></path></g></svg>